#!OML:ASF E:\Steps\Project 1\Capture day 1\Session 2\Subject.ASF
:FULLY-SPECIFIED
:DEGREES
359
root 4.87056 18.4248 11.015 -146.109 1.41342 177.608
lowerback -10.5391 -2.25061 -9.15472
upperback 3.75185 -1.43982 -1.11171
thorax 10.2586 -1.18225 3.67715
lowerneck -3.41067 0.641725 -2.00106
upperneck 11.6542 0.856691 5.47458
head 4.44454 0.770735 2.27749
rclavicle 1.15295e-014 4.69132e-014
rhumerus -34.9033 -6.34411 -78.62
rradius 58.521
rwrist -7.85752
rhand -10.4473 -410.608
rfingers 7.12502
rthumb 15.5529 -440.002
lclavicle 1.15295e-014 4.69132e-014
lhumerus -19.9748 -20.6403 75.0529
lradius 34.3221
lwrist 3.75684
lhand -22.9283 -14.8417
lfingers 7.12502
lthumb 3.51235 15.1091
rfemur -61.1951 9.20254 7.35398
rtibia 74.046
rfoot -15.7549 -10.975
rtoes -31.8921
lfemur -57.128 -1.05622 -20.0319
ltibia 32.8732
lfoot -8.51243 3.30565
ltoes -25.745
360
root 4.82001 18.452 10.9605 -146.327 1.48737 177.524
lowerback -10.5673 -2.27762 -8.943
upperback 3.82603 -1.49153 -1.16461
thorax 10.3546 -1.1957 3.48856
lowerneck -3.52319 0.678309 -1.92654
upperneck 11.6021 0.898621 5.43207
head 4.4459 0.790081 2.25141
rclavicle 2.94201e-014 1.27222e-014
rhumerus -35.0909 -6.80156 -78.6434
rradius 58.3401
rwrist -7.50506
rhand -10.0076 -410.724
rfingers 7.12502
rthumb 15.9763 -440.085
lclavicle 2.94201e-014 1.27222e-014
lhumerus -20.3332 -20.144 75.3783
lradius 34.0864
lwrist 3.74624
lhand -22.2895 -14.8055
lfingers 7.12502
lthumb 4.12919 15.1342
rfemur -61.4904 9.46294 8.06373
rtibia 72.6887
rfoot -16.4696 -10.1925
rtoes -31.895
lfemur -56.3332 -1.27609 -20.3166
ltibia 32.2835
lfoot -8.44931 3.34335
ltoes -25.9823
361
root 4.76987 18.4777 10.9068 -146.547 1.6262 177.399
lowerback -10.6304 -2.31321 -8.8551
upperback 3.85491 -1.53786 -1.20152
thorax 10.4257 -1.21307 3.38769
lowerneck -3.79374 0.598068 -1.91648
upperneck 12.4865 0.766729 5.54481
head 4.31988 0.770175 2.06786
rclavicle -1.98785e-015 -3.02153e-014
rhumerus -35.3312 -7.09384 -78.6554
rradius 58.0841
rwrist -7.29773
rhand -9.85699 -410.581
rfingers 7.12502
rthumb 16.1214 -439.931
lclavicle -1.98785e-015 -3.02153e-014
lhumerus -20.7709 -19.601 75.7514
lradius 33.7327
lwrist 3.60394
lhand -21.8426 -15.1392
lfingers 7.12502
lthumb 4.56073 14.7917
rfemur -61.7001 9.77838 8.62862
rtibia 71.1403
rfoot -17.0677 -9.46552
rtoes -32.0999
lfemur -55.5063 -1.44841 -20.6968
ltibia 31.6679
lfoot -8.33103 3.4064
ltoes -27.3148
362
root 4.72345 18.5041 10.8553 -146.707 1.66265 177.35
lowerback -10.7599 -2.42345 -8.70743
upperback 3.79216 -1.70566 -1.16757
thorax 10.4478 -1.28611 3.30549
lowerneck -3.62877 0.560385 -1.97982
upperneck 12.7393 0.737287 5.50746
head 4.37009 0.759845 2.06775
rclavicle -3.26007e-014 -4.29375e-014
rhumerus -35.769 -7.16527 -78.6853
rradius 57.8692
rwrist -7.31607
rhand -9.87295 -410.181
rfingers 7.12502
rthumb 16.106 -439.532
lclavicle -3.26007e-014 -4.29375e-014
lhumerus -21.4986 -18.992 76.1743
lradius 33.3666
lwrist 3.49933
lhand -21.9383 -15.3564
lfingers 7.12502
lthumb 4.46837 14.5764
rfemur -61.8802 10.0116 9.31334
rtibia 69.536
rfoot -17.7569 -8.75398
rtoes -32.1384
lfemur -54.8213 -1.57027 -20.9453
ltibia 31.0911
lfoot -8.26828 3.36095
ltoes -26.8068
363
root 4.67438 18.5296 10.8019 -146.888 1.67655 177.295
lowerback -10.9322 -2.52314 -8.49773
upperback 3.73904 -1.86218 -1.14855
thorax 10.5002 -1.35018 3.1727
lowerneck -2.79654 0.776454 -1.97469
upperneck 11.6451 1.08184 5.15745
head 4.30678 0.866073 2.16147
rclavicle -1.55052e-014 1.19271e-014
rhumerus -36.2208 -7.29524 -78.6908
rradius 57.729
rwrist -7.36372
rhand -9.60129 -410.179
rfingers 7.12502
rthumb 16.3676 -439.508
lclavicle -1.55052e-014 1.19271e-014
lhumerus -22.2533 -18.4056 76.6098
lradius 33.1151
lwrist 3.45756
lhand -22.2878 -15.0057
lfingers 7.12502
lthumb 4.13081 14.934
rfemur -61.8966 10.18 9.97617
rtibia 67.8401
rfoot -18.5184 -7.88791
rtoes -31.9054
lfemur -54.0548 -1.79734 -21.1357
ltibia 30.4093
lfoot -8.282 3.28428
ltoes -24.2512
